<svg version="1.2" xmlns="http://www.w3.org/2000/svg" viewBox="0 0 16 16" width="16" height="16">
	<title>TextFile-svg</title>
	<style>
		.s0 { fill: #e0e0e0 } 
	</style>
	<path id="Layer" class="s0" d="m9 1l0.6 2.3 0.7 0.2 1.9-1.2 1.5 1.5-1.2 2 0.2 0.6 2.3 0.6v2h-5.3c0.4-0.6 0.4-1.4 0.1-2-0.4-0.6-1.1-1-1.8-1-0.7 0-1.4 0.4-1.7 1-0.4 0.6-0.4 1.4-0.1 2h-5.2v-2l2.3-0.6 0.2-0.7-1.2-1.9 1.5-1.5 2 1.2 0.6-0.2 0.6-2.3zm-2 14l-0.6-2.2-0.7-0.3-2 1.2-1.4-1.4 1.2-2-0.2-0.7-2.3-0.6v-2h5.3c-0.4 0.6-0.4 1.4 0 2 0.3 0.6 1 1 1.7 1 0.7 0 1.4-0.4 1.7-1 0.4-0.6 0.4-1.3 0.1-1.9h5.2v2l-2.3 0.5-0.2 0.7 1.1 2-1.4 1.4-2-1.2-0.7 0.3-0.5 2.2z"/>
</svg>